<svg version="1.1" id="Layer_1" xmlns="http://www.w3.org/2000/svg" xmlns:xlink="http://www.w3.org/1999/xlink" x="0px" y="0px"
	 width="100%" viewBox="0 0 512 512" enable-background="new 0 0 512 512" xml:space="preserve">
<path fill="#FFFFFF" opacity="1.000000" stroke="none" 
	d="
M223.000000,513.000000 
	C148.684677,513.000000 74.869362,513.000000 1.027019,513.000000 
	C1.027019,342.392975 1.027019,171.785965 1.027019,1.089473 
	C171.565353,1.089473 342.130768,1.089473 512.848083,1.089473 
	C512.848083,171.666565 512.848083,342.333252 512.848083,513.000000 
	C416.452606,513.000000 319.976288,513.000000 223.000000,513.000000 
M272.499756,212.318588 
	C290.321014,212.319092 308.142242,212.323166 325.963501,212.319122 
	C344.284302,212.314987 362.605225,212.335800 380.925873,212.279205 
	C389.019470,212.254211 394.967590,208.625458 398.031311,201.044708 
	C403.126984,188.436234 394.197266,175.984222 380.080811,175.976913 
	C315.624420,175.943466 251.168030,175.958862 186.711639,175.957504 
	C168.723816,175.957123 150.735886,175.920517 132.748245,175.978806 
	C125.065552,176.003708 118.434547,180.640610 115.853775,187.541687 
	C111.151566,200.115540 119.449158,212.158920 133.093796,212.191788 
	C179.228928,212.302933 225.364395,212.286987 272.499756,212.318588 
M306.499908,342.201050 
	C331.146393,342.197083 355.793030,342.234528 380.439331,342.170532 
	C391.638062,342.141449 399.156097,334.822479 399.170898,324.181213 
	C399.185913,313.390167 391.714020,306.042328 380.589722,305.933563 
	C377.092865,305.899353 373.595490,305.917694 370.098328,305.917725 
	C291.662262,305.918518 213.226013,305.853424 134.790680,306.094421 
	C130.293671,306.108215 125.230667,307.729431 121.439789,310.169617 
	C115.021729,314.300934 113.088058,322.922913 115.642883,330.163757 
	C118.350807,337.838531 124.582985,342.190247 133.140381,342.192993 
	C190.593552,342.211334 248.046707,342.200470 306.499908,342.201050 
M203.499908,277.202911 
	C262.497345,277.206146 321.494751,277.229980 380.492188,277.192657 
	C390.480499,277.186340 398.205841,270.801514 399.085297,262.138855 
	C400.199860,251.159897 394.513184,243.208755 383.939423,241.216614 
	C381.841858,240.821411 379.625946,241.005432 377.464600,241.005203 
	C296.634766,240.996857 215.804703,240.928406 134.975647,241.179276 
	C130.335312,241.193680 125.110977,242.909698 121.203003,245.444336 
	C115.022820,249.452698 113.094414,258.221863 115.488014,265.081451 
	C118.106712,272.586121 124.324982,277.167938 132.503326,277.193329 
	C155.835297,277.265778 179.167664,277.208923 203.499908,277.202911 
z"/>
<path fill="#020202" opacity="1.000000" stroke="none" 
	d="
M271.999756,212.319092 
	C225.364395,212.286987 179.228928,212.302933 133.093796,212.191788 
	C119.449158,212.158920 111.151566,200.115540 115.853775,187.541687 
	C118.434547,180.640610 125.065552,176.003708 132.748245,175.978806 
	C150.735886,175.920517 168.723816,175.957123 186.711639,175.957504 
	C251.168030,175.958862 315.624420,175.943466 380.080811,175.976913 
	C394.197266,175.984222 403.126984,188.436234 398.031311,201.044708 
	C394.967590,208.625458 389.019470,212.254211 380.925873,212.279205 
	C362.605225,212.335800 344.284302,212.314987 325.963501,212.319122 
	C308.142242,212.323166 290.321014,212.319092 271.999756,212.319092 
z"/>
<path fill="#020202" opacity="1.000000" stroke="none" 
	d="
M305.999878,342.200073 
	C248.046707,342.200470 190.593552,342.211334 133.140381,342.192993 
	C124.582985,342.190247 118.350807,337.838531 115.642883,330.163757 
	C113.088058,322.922913 115.021729,314.300934 121.439789,310.169617 
	C125.230667,307.729431 130.293671,306.108215 134.790680,306.094421 
	C213.226013,305.853424 291.662262,305.918518 370.098328,305.917725 
	C373.595490,305.917694 377.092865,305.899353 380.589722,305.933563 
	C391.714020,306.042328 399.185913,313.390167 399.170898,324.181213 
	C399.156097,334.822479 391.638062,342.141449 380.439331,342.170532 
	C355.793030,342.234528 331.146393,342.197083 305.999878,342.200073 
z"/>
<path fill="#020202" opacity="1.000000" stroke="none" 
	d="
M202.999893,277.202942 
	C179.167664,277.208923 155.835297,277.265778 132.503326,277.193329 
	C124.324982,277.167938 118.106712,272.586121 115.488014,265.081451 
	C113.094414,258.221863 115.022820,249.452698 121.203003,245.444336 
	C125.110977,242.909698 130.335312,241.193680 134.975647,241.179276 
	C215.804703,240.928406 296.634766,240.996857 377.464600,241.005203 
	C379.625946,241.005432 381.841858,240.821411 383.939423,241.216614 
	C394.513184,243.208755 400.199860,251.159897 399.085297,262.138855 
	C398.205841,270.801514 390.480499,277.186340 380.492188,277.192657 
	C321.494751,277.229980 262.497345,277.206146 202.999893,277.202942 
z"/>
</svg>