<svg version="1.1" id="Layer_1" xmlns="http://www.w3.org/2000/svg" xmlns:xlink="http://www.w3.org/1999/xlink" x="0px" y="0px"
	 width="100%" viewBox="0 0 512 512" enable-background="new 0 0 512 512" xml:space="preserve">
<path fill="#000000" opacity="1.000000" stroke="none" 
	d="
M315.463379,220.457520 
	C303.958160,232.953247 292.692688,245.189880 281.084839,257.798401 
	C307.986481,286.910492 334.610504,315.722168 361.507751,344.829468 
	C356.390533,351.536835 350.353607,356.765350 344.893219,362.493774 
	C336.919891,370.858551 336.875336,370.677765 328.904297,362.024109 
	C306.444153,337.640656 283.913361,313.322296 261.427795,288.962189 
	C260.081604,287.503754 258.888153,285.904327 257.121094,283.760895 
	C230.152954,312.985809 203.800018,341.544067 176.982864,370.605377 
	C172.458771,366.047302 168.405594,361.968262 164.357727,357.883911 
	C161.308548,354.807251 158.380020,351.599274 155.186096,348.681458 
	C152.463852,346.194580 152.644638,344.312958 155.143250,341.654205 
	C169.173996,326.724182 183.041245,311.640533 196.973312,296.617706 
	C207.847534,284.892120 218.665222,273.112732 229.667191,261.508087 
	C232.304749,258.726074 232.251846,256.991577 229.581909,254.149200 
	C205.516434,228.529556 181.614960,202.755859 157.665176,177.027542 
	C157.324661,176.661713 156.977737,176.301712 156.640900,175.932556 
	C151.875336,170.709763 151.879990,170.713791 156.833557,165.704849 
	C162.221375,160.256821 167.796066,154.975662 172.908096,149.279648 
	C175.902267,145.943420 177.805466,146.017242 180.804520,149.287247 
	C200.169052,170.401260 219.689728,191.372177 239.180603,212.370148 
	C244.919281,218.552551 250.727280,224.670578 257.016602,231.364182 
	C283.662170,202.569458 309.859985,174.258575 336.096130,145.906281 
	C339.765442,147.132812 341.497681,150.163971 343.820984,152.406219 
	C348.854523,157.264114 353.595490,162.426895 358.665558,167.244522 
	C361.326752,169.773224 361.244720,171.536789 358.714355,174.208786 
	C344.282288,189.448654 330.021912,204.851151 315.463379,220.457520 
z"/>
</svg>